<svg xmlns="http://www.w3.org/2000/svg"  viewBox="0 0 64 64" width="512px" height="512px" baseProfile="basic"><linearGradient id="CzdwPFMuPhhfV5uION8yZa" x1="19" x2="19" y1="11.613" y2="53.392" gradientUnits="userSpaceOnUse"><stop offset="0" stop-color="#1a6dff"/><stop offset="1" stop-color="#c822ff"/></linearGradient><path fill="url(#CzdwPFMuPhhfV5uION8yZa)" d="M28.42,31H9.58C8.157,31,7,29.842,7,28.419V9.581C7,8.158,8.157,7,9.58,7h18.84 C29.843,7,31,8.158,31,9.581v18.839C31,29.842,29.843,31,28.42,31z M9.58,9C9.26,9,9,9.26,9,9.581v18.839C9,28.74,9.26,29,9.58,29 h18.84c0.32,0,0.58-0.26,0.58-0.581V9.581C29,9.26,28.74,9,28.42,9H9.58z"/><linearGradient id="CzdwPFMuPhhfV5uION8yZb" x1="45" x2="45" y1="11.613" y2="53.392" gradientUnits="userSpaceOnUse"><stop offset="0" stop-color="#1a6dff"/><stop offset="1" stop-color="#c822ff"/></linearGradient><path fill="url(#CzdwPFMuPhhfV5uION8yZb)" d="M54.42,31H35.58 C34.157,31,33,29.842,33,28.419V9.581C33,8.158,34.157,7,35.58,7h18.84C55.843,7,57,8.158,57,9.581v18.839 C57,29.842,55.843,31,54.42,31z M35.58,9C35.26,9,35,9.26,35,9.581v18.839C35,28.74,35.26,29,35.58,29h18.84 c0.32,0,0.58-0.26,0.58-0.581V9.581C55,9.26,54.74,9,54.42,9H35.58z"/><linearGradient id="CzdwPFMuPhhfV5uION8yZc" x1="19" x2="19" y1="11.613" y2="53.392" gradientUnits="userSpaceOnUse"><stop offset="0" stop-color="#1a6dff"/><stop offset="1" stop-color="#c822ff"/></linearGradient><path fill="url(#CzdwPFMuPhhfV5uION8yZc)" d="M28.42,57H9.58 C8.157,57,7,55.842,7,54.419V35.581C7,34.158,8.157,33,9.58,33h18.84c1.423,0,2.58,1.158,2.58,2.581v18.839 C31,55.842,29.843,57,28.42,57z M9.58,35C9.26,35,9,35.26,9,35.581v18.839C9,54.74,9.26,55,9.58,55h18.84 c0.32,0,0.58-0.26,0.58-0.581V35.581C29,35.26,28.74,35,28.42,35H9.58z"/><g><linearGradient id="CzdwPFMuPhhfV5uION8yZd" x1="45" x2="45" y1="11.613" y2="53.392" gradientUnits="userSpaceOnUse"><stop offset="0" stop-color="#1a6dff"/><stop offset="1" stop-color="#c822ff"/></linearGradient><path fill="url(#CzdwPFMuPhhfV5uION8yZd)" d="M54.42,57H35.58 C34.157,57,33,55.842,33,54.419V35.581C33,34.158,34.157,33,35.58,33h18.84c1.423,0,2.58,1.158,2.58,2.581v18.839 C57,55.842,55.843,57,54.42,57z M35.58,35C35.26,35,35,35.26,35,35.581v18.839C35,54.74,35.26,55,35.58,55h18.84 c0.32,0,0.58-0.26,0.58-0.581V35.581C55,35.26,54.74,35,54.42,35H35.58z"/></g><linearGradient id="CzdwPFMuPhhfV5uION8yZe" x1="48.302" x2="48.302" y1="45.126" y2="53.5" gradientUnits="userSpaceOnUse"><stop offset="0" stop-color="#6dc7ff"/><stop offset="1" stop-color="#e6abff"/></linearGradient><path fill="url(#CzdwPFMuPhhfV5uION8yZe)" d="M44.121,53h7.761	C52.499,53,53,52.499,53,51.882v-5.724c0-0.403-0.46-0.633-0.783-0.391l-8.406,6.305C43.414,52.369,43.625,53,44.121,53z"/></svg>