<svg xmlns="http://www.w3.org/2000/svg"  viewBox="0 0 48 48" width="240px" height="240px" baseProfile="basic"><linearGradient id="RfAPQVKmXWVw06hx5oZ9Ra" x1="8.955" x2="43.295" y1="-133.503" y2="-170.907" gradientTransform="matrix(1 0 0 -1 0 -125.89)" gradientUnits="userSpaceOnUse"><stop offset="0" stop-color="#fc7d5b"/><stop offset=".06" stop-color="#f8734f"/><stop offset=".18" stop-color="#f3653d"/><stop offset=".326" stop-color="#f05b31"/><stop offset=".523" stop-color="#ee552a"/><stop offset="1" stop-color="#ed5328"/></linearGradient><path fill="url(#RfAPQVKmXWVw06hx5oZ9Ra)" d="M42,38c0,2.209-1.791,4-4,4H10c-2.209,0-4-1.791-4-4V10c0-2.209,1.791-4,4-4h28	c2.209,0,4,1.791,4,4V38z"/><path d="M37,15c0.552,0,1,0.448,1,1v16c0,0.552-0.448,1-1,1h-2c-0.552,0-1-0.448-1-1V16c0-0.552,0.448-1,1-1H37 M37,14h-2 c-1.103,0-2,0.897-2,2v16c0,1.103,0.897,2,2,2h2c1.103,0,2-0.897,2-2V16C39,14.897,38.103,14,37,14L37,14z" opacity=".05"/><path d="M37,15c0.552,0,1,0.448,1,1v16c0,0.552-0.448,1-1,1h-2c-0.552,0-1-0.448-1-1V16c0-0.552,0.448-1,1-1H37 M37,14.5h-2 c-0.827,0-1.5,0.673-1.5,1.5v16c0,0.827,0.673,1.5,1.5,1.5h2c0.827,0,1.5-0.673,1.5-1.5V16C38.5,15.173,37.827,14.5,37,14.5 L37,14.5z" opacity=".07"/><path d="M21,22c0.552,0,1,0.448,1,1v9c0,0.552-0.448,1-1,1h-2c-0.552,0-1-0.448-1-1v-9c0-0.552,0.448-1,1-1H21 M21,21h-2 c-1.103,0-2,0.897-2,2v9c0,1.103,0.897,2,2,2h2c1.103,0,2-0.897,2-2v-9C23,21.897,22.103,21,21,21L21,21z" opacity=".05"/><path d="M21,22c0.552,0,1,0.448,1,1v9c0,0.552-0.448,1-1,1h-2c-0.552,0-1-0.448-1-1v-9c0-0.552,0.448-1,1-1H21 M21,21.5h-2 c-0.827,0-1.5,0.673-1.5,1.5v9c0,0.827,0.673,1.5,1.5,1.5h2c0.827,0,1.5-0.673,1.5-1.5v-9C22.5,22.173,21.827,21.5,21,21.5 L21,21.5z" opacity=".07"/><path d="M24,15c3.314,0,6,2.686,6,6v11c0,0.552-0.448,1-1,1h-2c-0.552,0-1-0.448-1-1V22c0-1.657-1.343-3-3-3h-8 c-0.552,0-1,0.448-1,1v12c0,0.552-0.448,1-1,1h-2c-0.552,0-1-0.448-1-1V16c0-0.552,0.448-1,1-1H24 M24,14H11c-1.103,0-2,0.897-2,2 v16c0,1.103,0.897,2,2,2h2c1.103,0,2-0.897,2-2V20h8c1.103,0,2,0.897,2,2v10c0,1.103,0.897,2,2,2h2c1.103,0,2-0.897,2-2V21 C31,17.14,27.86,14,24,14L24,14z" opacity=".05"/><path d="M24,15c3.314,0,6,2.686,6,6v11c0,0.552-0.448,1-1,1h-2c-0.552,0-1-0.448-1-1V22c0-1.657-1.343-3-3-3h-8 c-0.552,0-1,0.448-1,1v12c0,0.552-0.448,1-1,1h-2c-0.552,0-1-0.448-1-1V16c0-0.552,0.448-1,1-1H24 M24,14.5H11 c-0.827,0-1.5,0.673-1.5,1.5v16c0,0.827,0.673,1.5,1.5,1.5h2c0.827,0,1.5-0.673,1.5-1.5V20c0-0.276,0.224-0.5,0.5-0.5h8 c1.379,0,2.5,1.122,2.5,2.5v10c0,0.827,0.673,1.5,1.5,1.5h2c0.827,0,1.5-0.673,1.5-1.5V21C30.5,17.416,27.584,14.5,24,14.5 L24,14.5z" opacity=".07"/><path fill="#fafafa" d="M35,15h2c0.552,0,1,0.448,1,1v16c0,0.552-0.448,1-1,1h-2c-0.552,0-1-0.448-1-1V16	C34,15.448,34.448,15,35,15z"/><path fill="#fafafa" d="M19,22h2c0.552,0,1,0.448,1,1v9c0,0.552-0.448,1-1,1h-2c-0.552,0-1-0.448-1-1v-9	C18,22.448,18.448,22,19,22z"/><path fill="#fafafa" d="M30,21v11c0,0.552-0.448,1-1,1h-2c-0.552,0-1-0.448-1-1V22c0-1.657-1.343-3-3-3h-8	c-0.552,0-1,0.448-1,1v12c0,0.552-0.448,1-1,1h-2c-0.552,0-1-0.448-1-1V16c0-0.552,0.448-1,1-1h13C27.314,15,30,17.686,30,21z"/></svg>